<?xml version="1.0" encoding="UTF-8" standalone="no"?>
<svg
   xmlns:dc="http://purl.org/dc/elements/1.1/"
   xmlns:cc="http://creativecommons.org/ns#"
   xmlns:rdf="http://www.w3.org/1999/02/22-rdf-syntax-ns#"
   xmlns:svg="http://www.w3.org/2000/svg"
   xmlns="http://www.w3.org/2000/svg"
   xmlns:xlink="http://www.w3.org/1999/xlink"
   xmlns:sodipodi="http://sodipodi.sourceforge.net/DTD/sodipodi-0.dtd"
   xmlns:inkscape="http://www.inkscape.org/namespaces/inkscape"
   width="153mm"
   height="60mm"
   viewBox="0 0 153 60"
   version="1.1"
   id="svg8"
   inkscape:version="1.0.2-2 (e86c870879, 2021-01-15)"
   sodipodi:docname="task_high_layout.svg"
   inkscape:export-filename="C:\Users\olaf3\Desktop\ic_belka_low_test.png"
   inkscape:export-xdpi="96"
   inkscape:export-ydpi="96">
  <defs
     id="defs2">
    <linearGradient
       inkscape:collect="always"
       xlink:href="#linearGradient1015-1"
       id="linearGradient1017-5"
       x1="348.36374"
       y1="372.49387"
       x2="348.36374"
       y2="243.27377"
       gradientUnits="userSpaceOnUse"
       gradientTransform="matrix(0.26458333,0,0,0.26458333,-15.05033,-83.629226)" />
    <linearGradient
       inkscape:collect="always"
       id="linearGradient1015-1">
      <stop
         style="stop-color:#317482;stop-opacity:1"
         offset="0"
         id="stop1011-7" />
      <stop
         style="stop-color:#317482;stop-opacity:1"
         offset="1"
         id="stop1013-6" />
    </linearGradient>
  </defs>
  <sodipodi:namedview
     id="base"
     pagecolor="#ffffff"
     bordercolor="#666666"
     borderopacity="1.0"
     inkscape:pageopacity="0.0"
     inkscape:pageshadow="2"
     inkscape:zoom="1.4"
     inkscape:cx="322.81746"
     inkscape:cy="134.09207"
     inkscape:document-units="mm"
     inkscape:current-layer="layer1"
     inkscape:document-rotation="0"
     showgrid="false"
     showguides="true"
     inkscape:guide-bbox="true"
     inkscape:window-width="1920"
     inkscape:window-height="1017"
     inkscape:window-x="-8"
     inkscape:window-y="-8"
     inkscape:window-maximized="1">
    <sodipodi:guide
       position="134.67828,211.13033"
       orientation="0,-1"
       id="guide921" />
    <sodipodi:guide
       position="129.36984,198.44433"
       orientation="0,-1"
       id="guide923" />
    <sodipodi:guide
       position="133.54677,210.7973"
       orientation="0,-1"
       id="guide925" />
  </sodipodi:namedview>
  <metadata
     id="metadata5">
    <rdf:RDF>
      <cc:Work
         rdf:about="">
        <dc:format>image/svg+xml</dc:format>
        <dc:type
           rdf:resource="http://purl.org/dc/dcmitype/StillImage" />
        <dc:title />
      </cc:Work>
    </rdf:RDF>
  </metadata>
  <g
     inkscape:label="Warstwa 1"
     inkscape:groupmode="layer"
     id="layer1">
    <path
       style="color:#000000;font-style:normal;font-variant:normal;font-weight:normal;font-stretch:normal;font-size:medium;line-height:normal;font-family:sans-serif;font-variant-ligatures:normal;font-variant-position:normal;font-variant-caps:normal;font-variant-numeric:normal;font-variant-alternates:normal;font-variant-east-asian:normal;font-feature-settings:normal;font-variation-settings:normal;text-indent:0;text-align:start;text-decoration:none;text-decoration-line:none;text-decoration-style:solid;text-decoration-color:#000000;letter-spacing:normal;word-spacing:normal;text-transform:none;writing-mode:lr-tb;direction:ltr;text-orientation:mixed;dominant-baseline:auto;baseline-shift:baseline;text-anchor:start;white-space:normal;shape-padding:0;shape-margin:0;inline-size:0;clip-rule:nonzero;display:inline;overflow:visible;visibility:visible;isolation:auto;mix-blend-mode:normal;color-interpolation:sRGB;color-interpolation-filters:linearRGB;solid-color:#000000;solid-opacity:1;vector-effect:none;fill:#202020;fill-opacity:1;fill-rule:nonzero;stroke:#322a27;stroke-width:0.211305;stroke-linecap:butt;stroke-linejoin:miter;stroke-miterlimit:4;stroke-dasharray:none;stroke-dashoffset:0;stroke-opacity:1;color-rendering:auto;image-rendering:auto;shape-rendering:auto;text-rendering:auto;enable-background:accumulate;stop-color:#000000"
       d="m 5.5293714,85.750385 c 0,0 45.9787006,4.88873 69.0528146,4.84355 21.854251,-0.0428 65.383754,-4.84355 65.383754,-4.84355 V 115.2415 H 5.5293714 Z"
       id="rect835"
       sodipodi:nodetypes="cacccc" />
    <rect
       style="fill:#00df3a;fill-opacity:0;stroke-width:0.264583"
       id="rect855"
       width="153.48631"
       height="61.857014"
       x="-0.24315643"
       y="-0.27521554" />
    <g
       id="g894"
       inkscape:export-xdpi="96"
       inkscape:export-ydpi="96">
      <rect
         style="fill:#1a1a1a;fill-opacity:1;stroke-width:0.139727"
         id="rect857"
         width="151.22383"
         height="40.501305"
         x="1.0383215"
         y="0.34246075" />
      <rect
         style="fill:#222222;fill-opacity:1;stroke:none;stroke-width:0.19118;stroke-opacity:1"
         id="rect833"
         width="134.43657"
         height="24.14102"
         x="9.2711449"
         y="14.37199"
         rx="7.3705359"
         ry="3.848213" />
      <path
         id="rect927-6"
         style="fill:url(#linearGradient1017-5);fill-opacity:1;stroke:none;stroke-width:0.270375;stroke-opacity:1"
         d="m 32.468733,2.240469 0.14211,0.420129 c 0.345102,-0.04019 0.679009,-0.07228 0.989087,-0.08733 l 4.177006,12.353251 H 115.25489 L 119.4319,2.573268 c 0.31023,0.01506 0.64432,0.04711 0.9896,0.08733 l 0.14211,-0.420129 z m 88.094877,0 c 0,0 -1.13179,0.333076 0,0 z"
         sodipodi:nodetypes="ccccccccccc" />
      <path
         id="path909-5"
         style="opacity:0.765182;fill:#317482;fill-opacity:1;stroke:none;stroke-width:0.48609;stroke-opacity:1"
         d="M 124.99739,3.248308 C 123.26477,2.68872 121.80178,2.380918 120.56333,2.240514 L 116.3864,14.59348 c 1.23845,0.140403 2.70144,0.448201 4.43406,1.007799 0.27892,0.09009 0.56434,0.1866 0.85717,0.289837 5.70277,2.01179 7.82281,4.74286 10.19941,7.37257 2.37658,2.6297 5.00987,5.14852 11.63675,6.62738 0.84592,0.18881 2.0801,0.0768 3.23697,-0.0772 l 4.1766,-12.35199 c -1.15635,0.1538 -2.3921,0.26472 -3.23664,0.0763 -6.62688,-1.478864 -9.26015,-3.997688 -11.63675,-6.627387 -2.37659,-2.629704 -4.49664,-5.360809 -10.19941,-7.372573 -0.29283,-0.103237 -0.57824,-0.199745 -0.85717,-0.289838 z" />
      <path
         id="path904"
         style="opacity:0.59919;fill:#317482;fill-opacity:1;stroke:none;stroke-width:0.48609;stroke-opacity:1"
         d="m 122.89066,3.1130283 c -1.33452,-0.32708 -2.48229,-0.492065 -3.45884,-0.539483 l -4.17693,12.3529697 c 0.97654,0.0474 2.12431,0.2124 3.45884,0.53948 z m 28.89965,14.6154477 c -1.19535,0.17562 -2.67831,0.39545 -3.77359,0.29618 l -4.17676,12.35248 c 1.07001,0.0971 2.50812,-0.10978 3.68905,-0.28331 z" />
      <path
         id="path917-2"
         style="opacity:0.59919;fill:#317482;fill-opacity:1;stroke:none;stroke-width:0.48609;stroke-opacity:1"
         d="m 30.141177,3.11302 c 1.334521,-0.32708 2.482291,-0.492065 3.45884,-0.539483 l 4.17693,12.35297 c -0.97654,0.0474 -2.12431,0.2124 -3.45884,0.53948 z M 1.2415263,17.728466 c 1.1953501,0.17562 2.6783101,0.39545 3.7735901,0.29618 l 4.17676,12.35248 c -1.07001,0.0971 -2.50812,-0.10978 -3.68905,-0.28331 z" />
      <path
         id="path919-0"
         style="opacity:0.765182;fill:#317482;fill-opacity:1;stroke:none;stroke-width:0.48609;stroke-opacity:1"
         d="m 28.034447,3.2483 c 1.73262,-0.559588 3.19561,-0.86739 4.43406,-1.007794 l 4.17693,12.352966 c -1.23845,0.140403 -2.701439,0.448201 -4.43406,1.007799 -0.27892,0.09009 -0.56434,0.1866 -0.85717,0.289837 -5.70277,2.011788 -7.82281,4.742858 -10.19941,7.372568 -2.37658,2.6297 -5.00987,5.14852 -11.6367506,6.62738 -0.84592,0.18881 -2.0801,0.0768 -3.23697,-0.0772 l -4.1766,-12.35199 c 1.15635,0.1538 2.3921,0.26472 3.23664,0.0763 6.6268806,-1.478862 9.2601506,-3.997686 11.6367506,-6.627385 2.37659,-2.629704 4.49664,-5.360809 10.19941,-7.372573 0.29283,-0.103237 0.57824,-0.199745 0.85717,-0.289838 z" />
      <text
         xml:space="preserve"
         style="font-style:normal;font-weight:normal;font-size:9.87778px;line-height:1.25;font-family:sans-serif;fill:#000000;fill-opacity:1;stroke:none;stroke-width:0.264583"
         x="56.919777"
         y="12.23943"
         id="text883"><tspan
           sodipodi:role="line"
           id="tspan881"
           x="56.919777"
           y="12.23943"
           style="font-style:normal;font-variant:normal;font-weight:normal;font-stretch:normal;font-size:9.87778px;font-family:Roboto;-inkscape-font-specification:Roboto;fill:#ffffff;stroke-width:0.264583">Task List</tspan></text>
    </g>
  </g>
</svg>
